HIERARCHY
ROOT Hips
{
  OFFSET -416.7 92.7434 645.656
  CHANNELS 6 Xposition Yposition Zposition Zrotation Xrotation Yrotation
  JOINT Spine
  {
    OFFSET -1.07457e-05 8 2.44472e-05
    CHANNELS 6 Xposition Yposition Zposition Zrotation Xrotation Yrotation
    JOINT Spine1
    {
      OFFSET 0 8.00001 -1.55039e-05
      CHANNELS 6 Xposition Yposition Zposition Zrotation Xrotation Yrotation
      JOINT Spine2
      {
        OFFSET 1.88413e-05 8 -3.07591e-05
        CHANNELS 6 Xposition Yposition Zposition Zrotation Xrotation Yrotation
        JOINT Spine3
        {
          OFFSET 0 8 0
          CHANNELS 6 Xposition Yposition Zposition Zrotation Xrotation Yrotation
          JOINT Neck
          {
            OFFSET 0.000155199 17.0001 -2.09031e-05
            CHANNELS 6 Xposition Yposition Zposition Zrotation Xrotation Yrotation
            JOINT Head
            {
              OFFSET 3.86909e-05 10.8 -1.85457e-05
              CHANNELS 6 Xposition Yposition Zposition Zrotation Xrotation Yrotation
              End Site
              {
                OFFSET 0 20.25 0
              }
            }
          }
          JOINT LeftShoulder
          {
            OFFSET 5.00016 16.9999 -0.000249756
            CHANNELS 6 Xposition Yposition Zposition Zrotation Xrotation Yrotation
            JOINT LeftShoulder2
            {
              OFFSET 6.45 0 0
              CHANNELS 6 Xposition Yposition Zposition Zrotation Xrotation Yrotation
              JOINT LeftArm
              {
                OFFSET 6.45001 0.000234579 0.000810196
                CHANNELS 6 Xposition Yposition Zposition Zrotation Xrotation Yrotation
                JOINT LeftForeArm
                {
                  OFFSET -1.88411e-05 -32.4 -1.99997
                  CHANNELS 6 Xposition Yposition Zposition Zrotation Xrotation Yrotation
                  JOINT LeftHand
                  {
                    OFFSET -1.8978e-05 -25.65 1.99999
                    CHANNELS 6 Xposition Yposition Zposition Zrotation Xrotation Yrotation
                    JOINT LeftHandThumb1
                    {
                      OFFSET -0.499979 -1.50001 2.65
                      CHANNELS 6 Xposition Yposition Zposition Zrotation Xrotation Yrotation
                      JOINT LeftHandThumb2
                      {
                        OFFSET -2.32972e-05 -3.8 3.7
                        CHANNELS 6 Xposition Yposition Zposition Zrotation Xrotation Yrotation
                        JOINT LeftHandThumb3
                        {
                          OFFSET 3.74481e-05 -3.00001 2.70002
                          CHANNELS 6 Xposition Yposition Zposition Zrotation Xrotation Yrotation
                          End Site
                          {
                            OFFSET 0 -2.3 1.79999
                          }
                        }
                      }
                    }
                    JOINT LeftHandIndex
                    {
                      OFFSET 0 -1.90001 1.6
                      CHANNELS 6 Xposition Yposition Zposition Zrotation Xrotation Yrotation
                      JOINT LeftHandIndex1
                      {
                        OFFSET 0 -8.29999 1.89999
                        CHANNELS 6 Xposition Yposition Zposition Zrotation Xrotation Yrotation
                        JOINT LeftHandIndex2
                        {
                          OFFSET 6.58635e-05 -4.50001 1.65506e-05
                          CHANNELS 6 Xposition Yposition Zposition Zrotation Xrotation Yrotation
                          JOINT LeftHandIndex3
                          {
                            OFFSET -2.34938e-05 -3.40001 -1.25025e-05
                            CHANNELS 6 Xposition Yposition Zposition Zrotation Xrotation Yrotation
                            End Site
                            {
                              OFFSET 3.343e-05 -2.59997 1.59422e-05
                            }
                          }
                        }
                      }
                    }
                    JOINT LeftHandMiddle
                    {
                      OFFSET -0.250006 -2.20001 0.399997
                      CHANNELS 6 Xposition Yposition Zposition Zrotation Xrotation Yrotation
                      JOINT LeftHandMiddle1
                      {
                        OFFSET 1.18291e-05 -8.3 0.999995
                        CHANNELS 6 Xposition Yposition Zposition Zrotation Xrotation Yrotation
                        JOINT LeftHandMiddle2
                        {
                          OFFSET 0 -4.64999 0
                          CHANNELS 6 Xposition Yposition Zposition Zrotation Xrotation Yrotation
                          JOINT LeftHandMiddle3
                          {
                            OFFSET 1.02596e-05 -3.3 1.34263e-05
                            CHANNELS 6 Xposition Yposition Zposition Zrotation Xrotation Yrotation
                            End Site
                            {
                              OFFSET -4.34704e-05 -2.69999 0
                            }
                          }
                        }
                      }
                    }
                    JOINT LeftHandRing
                    {
                      OFFSET -0.499965 -2.15001 -0.799984
                      CHANNELS 6 Xposition Yposition Zposition Zrotation Xrotation Yrotation
                      JOINT LeftHandRing1
                      {
                        OFFSET -1.38419e-05 -7.74999 -0.20001
                        CHANNELS 6 Xposition Yposition Zposition Zrotation Xrotation Yrotation
                        JOINT LeftHandRing2
                        {
                          OFFSET 0 -3.8 0
                          CHANNELS 6 Xposition Yposition Zposition Zrotation Xrotation Yrotation
                          JOINT LeftHandRing3
                          {
                            OFFSET -2.42492e-05 -3.40001 -1.81197e-05
                            CHANNELS 6 Xposition Yposition Zposition Zrotation Xrotation Yrotation
                            End Site
                            {
                              OFFSET 3.4121e-05 -2.59997 0
                            }
                          }
                        }
                      }
                    }
                    JOINT LeftHandPinky
                    {
                      OFFSET -0.749993 -1.75001 -1.84999
                      CHANNELS 6 Xposition Yposition Zposition Zrotation Xrotation Yrotation
                      JOINT LeftHandPinky1
                      {
                        OFFSET 2.19941e-05 -7.15 -0.99999
                        CHANNELS 6 Xposition Yposition Zposition Zrotation Xrotation Yrotation
                        JOINT LeftHandPinky2
                        {
                          OFFSET 0 -2.99999 -1.05236e-05
                          CHANNELS 6 Xposition Yposition Zposition Zrotation Xrotation Yrotation
                          JOINT LeftHandPinky3
                          {
                            OFFSET 1.20692e-05 -2.35003 -1.7469e-05
                            CHANNELS 6 Xposition Yposition Zposition Zrotation Xrotation Yrotation
                            End Site
                            {
                              OFFSET 0 -2.09997 1.5361e-05
                            }
                          }
                        }
                      }
                    }
                  }
                }
              }
            }
          }
          JOINT RightShoulder
          {
            OFFSET -4.99981 17.0001 0.000184741
            CHANNELS 6 Xposition Yposition Zposition Zrotation Xrotation Yrotation
            JOINT RightShoulder2
            {
              OFFSET -6.45 0 0
              CHANNELS 6 Xposition Yposition Zposition Zrotation Xrotation Yrotation
              JOINT RightArm
              {
                OFFSET -6.45001 -0.000336599 -0.00112477
                CHANNELS 6 Xposition Yposition Zposition Zrotation Xrotation Yrotation
                JOINT RightForeArm
                {
                  OFFSET 0 -32.4 -2.00002
                  CHANNELS 6 Xposition Yposition Zposition Zrotation Xrotation Yrotation
                  JOINT RightHand
                  {
                    OFFSET -1.83206e-05 -25.65 2.00004
                    CHANNELS 6 Xposition Yposition Zposition Zrotation Xrotation Yrotation
                    JOINT RightHandThumb1
                    {
                      OFFSET 0.500011 -1.49997 2.64997
                      CHANNELS 6 Xposition Yposition Zposition Zrotation Xrotation Yrotation
                      JOINT RightHandThumb2
                      {
                        OFFSET 0 -3.8 3.70002
                        CHANNELS 6 Xposition Yposition Zposition Zrotation Xrotation Yrotation
                        JOINT RightHandThumb3
                        {
                          OFFSET -2.04467e-05 -3.00002 2.69998
                          CHANNELS 6 Xposition Yposition Zposition Zrotation Xrotation Yrotation
                          End Site
                          {
                            OFFSET 1.29922e-05 -2.3 1.79999
                          }
                        }
                      }
                    }
                    JOINT RightHandIndex
                    {
                      OFFSET 0 -1.89998 1.60001
                      CHANNELS 6 Xposition Yposition Zposition Zrotation Xrotation Yrotation
                      JOINT RightHandIndex1
                      {
                        OFFSET 0 -8.30002 1.89998
                        CHANNELS 6 Xposition Yposition Zposition Zrotation Xrotation Yrotation
                        JOINT RightHandIndex2
                        {
                          OFFSET 0 -4.5 1.49244e-05
                          CHANNELS 6 Xposition Yposition Zposition Zrotation Xrotation Yrotation
                          JOINT RightHandIndex3
                          {
                            OFFSET 7.62383e-05 -3.39998 0
                            CHANNELS 6 Xposition Yposition Zposition Zrotation Xrotation Yrotation
                            End Site
                            {
                              OFFSET -2.77067e-05 -2.60003 -2.0977e-05
                            }
                          }
                        }
                      }
                    }
                    JOINT RightHandMiddle
                    {
                      OFFSET 0.250007 -2.19999 0.399976
                      CHANNELS 6 Xposition Yposition Zposition Zrotation Xrotation Yrotation
                      JOINT RightHandMiddle1
                      {
                        OFFSET -1.77289e-05 -8.30001 1
                        CHANNELS 6 Xposition Yposition Zposition Zrotation Xrotation Yrotation
                        JOINT RightHandMiddle2
                        {
                          OFFSET -3.00096e-05 -4.64997 1.61068e-05
                          CHANNELS 6 Xposition Yposition Zposition Zrotation Xrotation Yrotation
                          JOINT RightHandMiddle3
                          {
                            OFFSET 2.48345e-05 -3.3 -1.22154e-05
                            CHANNELS 6 Xposition Yposition Zposition Zrotation Xrotation Yrotation
                            End Site
                            {
                              OFFSET 0 -2.7 0
                            }
                          }
                        }
                      }
                    }
                    JOINT RightHandRing
                    {
                      OFFSET 0.50002 -2.14995 -0.800009
                      CHANNELS 6 Xposition Yposition Zposition Zrotation Xrotation Yrotation
                      JOINT RightHandRing1
                      {
                        OFFSET 0 -7.75002 -0.200004
                        CHANNELS 6 Xposition Yposition Zposition Zrotation Xrotation Yrotation
                        JOINT RightHandRing2
                        {
                          OFFSET 0 -3.79998 0
                          CHANNELS 6 Xposition Yposition Zposition Zrotation Xrotation Yrotation
                          JOINT RightHandRing3
                          {
                            OFFSET -1.02485e-05 -3.40001 0
                            CHANNELS 6 Xposition Yposition Zposition Zrotation Xrotation Yrotation
                            End Site
                            {
                              OFFSET -3.23961e-05 -2.6 0
                            }
                          }
                        }
                      }
                    }
                    JOINT RightHandPinky
                    {
                      OFFSET 0.750009 -1.74997 -1.85
                      CHANNELS 6 Xposition Yposition Zposition Zrotation Xrotation Yrotation
                      JOINT RightHandPinky1
                      {
                        OFFSET 1.33774e-05 -7.14999 -1.00001
                        CHANNELS 6 Xposition Yposition Zposition Zrotation Xrotation Yrotation
                        JOINT RightHandPinky2
                        {
                          OFFSET -1.1083e-05 -3.00002 0
                          CHANNELS 6 Xposition Yposition Zposition Zrotation Xrotation Yrotation
                          JOINT RightHandPinky3
                          {
                            OFFSET -1.39291e-05 -2.35 -1.78125e-05
                            CHANNELS 6 Xposition Yposition Zposition Zrotation Xrotation Yrotation
                            End Site
                            {
                              OFFSET 0 -2.09997 -3.3312e-05
                            }
                          }
                        }
                      }
                    }
                  }
                }
              }
            }
          }
        }
      }
    }
  }
  JOINT LeftUpLeg
  {
    OFFSET 8.00002 0 -2.19852e-05
    CHANNELS 6 Xposition Yposition Zposition Zrotation Xrotation Yrotation
    JOINT LeftLeg
    {
      OFFSET -1.9071e-05 -45.0001 -1.00001
      CHANNELS 6 Xposition Yposition Zposition Zrotation Xrotation Yrotation
      JOINT LeftFoot
      {
        OFFSET -3.7896e-05 -41 -1.99998
        CHANNELS 6 Xposition Yposition Zposition Zrotation Xrotation Yrotation
        JOINT LeftToeBase
        {
          OFFSET -1.17872e-05 -7.5 12.5
          CHANNELS 6 Xposition Yposition Zposition Zrotation Xrotation Yrotation
          JOINT LeftFootToe
          {
            OFFSET 0 0 4
            CHANNELS 6 Xposition Yposition Zposition Zrotation Xrotation Yrotation
            End Site
            {
              OFFSET 0 0 0
            }
          }
        }
      }
    }
  }
  JOINT RightUpLeg
  {
    OFFSET -8.00002 0 2.19852e-05
    CHANNELS 6 Xposition Yposition Zposition Zrotation Xrotation Yrotation
    JOINT RightLeg
    {
      OFFSET 2.06563e-05 -45 -1.00004
      CHANNELS 6 Xposition Yposition Zposition Zrotation Xrotation Yrotation
      JOINT RightFoot
      {
        OFFSET -1.09156e-05 -41 -1.99998
        CHANNELS 6 Xposition Yposition Zposition Zrotation Xrotation Yrotation
        JOINT RightToeBase
        {
          OFFSET 1.4246e-05 -7.5 12.5
          CHANNELS 6 Xposition Yposition Zposition Zrotation Xrotation Yrotation
          JOINT RightFootToe
          {
            OFFSET 0 0 4
            CHANNELS 6 Xposition Yposition Zposition Zrotation Xrotation Yrotation
            End Site
            {
              OFFSET 0 0 0
            }
          }
        }
      }
    }
  }
}
MOTION
Frames:	3
Frame Time:	0.0111111
-406.148 92.6608 638.626 -1.47173 -2.0934 -123.627 -1.13687e-13 8 -5.68434e-14 -5.66996 5.88337 -2.34218 0 8 0 0.293266 2.24402 -0.888681 0 8 0 0.142261 1.12269 -0.442857 0 8 0 0.142914 1.12347 -0.448438 -1.13687e-13 17 5.68434e-14 -3.55606 1.0073 14.33 0 10.8 0 -4.32191 -7.59964 33.2926 5 17 0 -8.75125 1.35431 0.891085 6.45 -5.68434e-14 0 -1.03872 1.56496 -0.368658 6.45 0 0 38.9323 -9.71975 21.5501 1.13687e-13 -32.4 -2 -53.6964 -64.1177 -20.2274 1.13687e-13 -25.65 2 8.18814 33.7755 -3.36172 -0.5 -1.5 2.65 -6.19712 -38.2574 -7.86862 -1.13687e-13 -3.8 3.7 -0.0904562 14.1229 -0.0125435 1.13687e-13 -3 2.7 -0.0394389 65.1222 0.0874 0 -1.9 1.6 -1.72216e-06 -2.74685e-06 3.97357e-07 0 -8.3 1.9 -5.85004 17.5913 1.35729 0 -4.5 5.68434e-14 -7.63862 -0.104783 0.102414 0 -3.4 5.68434e-14 -6.28571 -0.0910432 0.0674772 -0.25 -2.2 0.4 -1.72216e-06 -2.74685e-06 3.97357e-07 0 -8.3 1 -10.5206 17.639 2.36862 0 -4.65 0 -70.794 -0.153929 -0.00914448 0 -3.3 0 -53.4256 -0.101272 -0.159085 -0.5 -2.15 -0.8 -1.72216e-06 -2.74685e-06 3.97357e-07 0 -7.75 -0.2 -50.4712 19.4548 13.1231 0 -3.8 5.68434e-14 -0.0783443 0.00657525 0.0109509 5.68434e-14 -3.4 0 -0.0771664 0.00811045 -0.00938408 -0.75 -1.75 -1.85 -1.72216e-06 -2.74685e-06 3.97357e-07 0 -7.15 -1 -52.912 2.62516 4.96964 0 -3 0 -59.1925 0.413789 0.271367 0 -2.35 -8.52651e-14 -43.7847 0.103389 0.435507 -5 17 -5.68434e-14 -0.596396 2.85988 4.40335 -6.45 5.68434e-14 0 -0.589072 0.0869282 -3.48521 -6.45 5.68434e-14 0 -32.7825 38.5969 -15.6797 0 -32.4 -2 23.2348 -14.3058 16.0092 0 -25.65 2 -40.3091 -34.2223 13.7791 0.5 -1.5 2.65 18.133 -23.3147 14.6865 5.68434e-14 -3.8 3.7 0.100866 14.6395 -0.0564766 0 -3 2.7 -0.00321051 9.41913 -0.00434625 0 -1.9 1.6 3.18055e-15 4.77083e-15 -4.77083e-15 0 -8.3 1.9 3.66124 -15.4329 0.354451 0 -4.5 -5.68434e-14 3.06472 0.0011802 -0.00326576 5.68434e-14 -3.4 0 9.71383e-06 0.00115891 -0.00325003 0.25 -2.2 0.4 3.18055e-15 4.77083e-15 -4.77083e-15 0 -8.3 1 2.81638 -12.5658 0.188298 -5.68434e-14 -4.65 0 7.73921 -0.0117815 0.105312 5.68434e-14 -3.3 0 5.11644 -0.00156539 0.0887219 0.5 -2.15 -0.8 3.18055e-15 4.77083e-15 -4.77083e-15 0 -7.75 -0.2 1.41907 -7.21956 -0.00948714 -1.13687e-13 -3.8 -5.68434e-14 0.014169 -0.0233026 1.21831e-05 0 -3.4 0 2.76799e-05 -0.00576508 1.18532e-05 0.75 -1.75 -1.85 3.18055e-15 4.77083e-15 -4.77083e-15 0 -7.15 -1 0.131085 -2.86334 0.00157164 0 -3 -2.84217e-14 0.002907 -4.01155e-05 9.41611e-06 5.68434e-14 -2.35 0 -6.14129e-06 0.00174256 -1.98724e-06 8 7.10543e-15 0 9.65958 -13.5847 7.69728 0 -45 -1 -1.94657 -1.5123 -2.0524 0 -41 -2 -9.37996 16.0572 -26.9992 -1.13687e-13 -7.5 12.5 -9.88391e-11 4.41076e-06 5.23392e-11 0 0 4 1.86632 -2.15867 49.8703 -8 -7.10543e-15 0 -15.4515 -10.1899 -8.6535 0 -45 -1 0.0157508 5.14817 -1.48801 0 -41 -2 6.18116 1.50017 -15.6957 0 -7.5 12.5 4.90081e-09 0.0303498 -2.29642e-06 0 -1.42109e-14 4 -1.75565 -1.6055 35.4019 
-406.344 92.6379 638.877 -1.67984 -2.36447 -124.159 1.13687e-13 8 0 -6.05685 6.02705 -2.16858 -1.13687e-13 8 0 0.276065 2.29712 -0.82127 1.13687e-13 8 0 0.133902 1.14916 -0.409196 0 8 5.68434e-14 0.134168 1.14884 -0.411324 1.13687e-13 17 5.68434e-14 -3.5083 0.934853 14.3763 1.13687e-13 10.8 2.84217e-14 -4.34423 -7.46235 33.424 5 17 0 -8.8132 1.21943 0.946204 6.45 0 0 -1.0305 1.56206 -0.368589 6.45 0 0 39.2798 -9.39606 22.2743 0 -32.4 -2 -53.9204 -64.2417 -20.4697 1.13687e-13 -25.65 2 8.4527 33.0355 -4.2134 -0.5 -1.5 2.65 -6.22604 -37.844 -7.92805 0 -3.8 3.7 -0.0833345 13.7796 -0.0125249 0 -3 2.7 -0.0430657 66.0432 0.0718897 -1.13687e-13 -1.9 1.6 -1.72216e-06 -2.74685e-06 3.97357e-07 -1.13687e-13 -8.3 1.9 -5.85535 17.5935 1.35844 -1.13687e-13 -4.5 5.68434e-14 -4.69358 -0.0537358 0.0777514 1.13687e-13 -3.4 -5.68434e-14 -4.0254 -0.049267 0.0598186 -0.25 -2.2 0.4 -1.72216e-06 -2.74685e-06 3.97357e-07 0 -8.3 1 -9.88308 17.0728 2.14679 0 -4.65 5.68434e-14 -68.5395 -0.15804 0.0157517 0 -3.3 0 -50.7351 -0.125015 -0.128063 -0.5 -2.15 -0.8 -1.72216e-06 -2.74685e-06 3.97357e-07 0 -7.75 -0.2 -47.7106 19.7833 12.4295 0 -3.8 1.13687e-13 -0.12414 0.00657525 0.0109509 0 -3.4 5.68434e-14 -0.122269 0.00811045 -0.00938408 -0.75 -1.75 -1.85 -1.72216e-06 -2.74685e-06 3.97357e-07 0 -7.15 -1 -49.7165 2.53087 4.418 5.68434e-14 -3 0 -62.987 0.431443 0.260464 -1.13687e-13 -2.35 -5.68434e-14 -47.2871 0.110916 0.4479 -5 17 0 -0.553211 2.74732 4.50648 -6.45 -8.52651e-14 0 -0.586777 0.0924587 -3.50318 -6.45 2.84217e-14 0 -32.9066 38.7342 -15.8264 0 -32.4 -2 23.5618 -15.1514 16.318 0 -25.65 2 -40.5149 -34.708 13.542 0.5 -1.5 2.65 18.1723 -23.4727 14.4766 0 -3.8 3.7 0.101444 15.2053 -0.0566254 5.68434e-14 -3 2.7 -0.00174881 9.18214 -0.0136175 5.68434e-14 -1.9 1.6 -9.54166e-15 7.95139e-15 -1.59028e-15 5.68434e-14 -8.3 1.9 3.5554 -15.1844 0.337875 5.68434e-14 -4.5 0 3.06472 0.0011802 -0.00326576 0 -3.4 0 9.71383e-06 0.00115891 -0.00325003 0.25 -2.2 0.4 -9.54166e-15 7.95139e-15 -1.59028e-15 0 -8.3 1 2.76225 -12.5293 0.183936 0 -4.65 0 9.79936 -0.0210531 0.13272 0 -3.3 5.68434e-14 6.80543 -0.00557675 0.110053 0.5 -2.15 -0.8 -9.54166e-15 7.95139e-15 -1.59028e-15 0 -7.75 -0.2 1.4349 -7.54661 -0.00949416 -5.68434e-14 -3.8 2.84217e-14 0.014169 -0.0233026 1.21831e-05 5.68434e-14 -3.4 -2.84217e-14 2.76799e-05 -0.00576508 1.18532e-05 0.75 -1.75 -1.85 -9.54166e-15 7.95139e-15 -1.59028e-15 -5.68434e-14 -7.15 -1 0.176737 -3.4139 -0.000132498 0 -3 0 0.002907 -4.01155e-05 9.41611e-06 -5.68434e-14 -2.35 -2.84217e-14 -6.14129e-06 0.00174256 -1.98724e-06 8 7.10543e-15 0 9.22794 -13.4134 8.01452 0 -45 -1 -1.94692 -1.52891 -2.04328 0 -41 -2 -9.21292 15.9649 -26.9065 0 -7.5 12.5 -9.88391e-11 4.41076e-06 5.2336e-11 0 0 4 1.7682 -2.34259 49.8657 -8 0 -5.68434e-14 -15.5472 -10.3698 -8.64557 0 -45 -1 0.0210396 5.4651 -1.51203 0 -41 -2 5.87556 1.33581 -17.3284 -1.13687e-13 -7.5 12.5 4.90081e-09 0.0303498 -2.29642e-06 -1.13687e-13 1.42109e-14 4 -1.54501 -1.68056 35.3835 
-406.575 92.6102 639.114 -1.91521 -2.65791 -124.712 0 8 -5.68434e-14 -6.47669 6.14602 -1.98275 1.13687e-13 8 -5.68434e-14 0.25863 2.34651 -0.749925 0 8 0 0.125461 1.17379 -0.373581 0 8 0 0.125312 1.17364 -0.373465 0 17 -5.68434e-14 -3.47028 0.873757 14.4097 0 10.8 2.84217e-14 -4.37964 -7.33102 33.5208 5 17 -5.68434e-14 -8.88156 1.09497 0.993294 6.45 0 5.68434e-14 -1.02227 1.55522 -0.369138 6.45 -5.68434e-14 0 39.6367 -9.07662 23.0111 0 -32.4 -2 -54.2831 -64.2246 -20.655 1.13687e-13 -25.65 2 8.71188 32.3087 -4.81488 -0.5 -1.5 2.65 -6.38275 -37.4394 -8.07324 1.13687e-13 -3.8 3.7 -0.07811 13.4869 -0.0125093 0 -3 2.7 -0.0484399 66.7377 0.0637004 1.13687e-13 -1.9 1.6 -1.72216e-06 -2.74685e-06 3.97357e-07 1.13687e-13 -8.3 1.9 -5.67995 17.1939 1.30207 0 -4.5 -5.68434e-14 -2.6145 -0.0203438 0.0554571 0 -3.4 0 -2.36646 -0.0208532 0.048169 -0.25 -2.2 0.4 -1.72216e-06 -2.74685e-06 3.97357e-07 -1.13687e-13 -8.3 1 -9.5621 16.2277 1.97753 0 -4.65 0 -65.7228 -0.184911 0.0670653 1.42109e-14 -3.3 0 -47.8794 -0.167932 -0.0927842 -0.5 -2.15 -0.8 -1.72216e-06 -2.74685e-06 3.97357e-07 -1.13687e-13 -7.75 -0.2 -44.8034 19.4815 11.4413 0 -3.8 0 -0.148966 0.00657525 0.0107195 0 -3.4 -5.68434e-14 -0.146724 0.00811045 -0.00938408 -0.75 -1.75 -1.85 -1.72216e-06 -2.74685e-06 3.97357e-07 0 -7.15 -1 -46.7846 2.45784 3.92643 5.68434e-14 -3 2.84217e-14 -65.0734 0.356416 0.22799 0 -2.35 2.84217e-14 -49.2479 0.0782374 0.38199 -5 17 -5.68434e-14 -0.54184 2.64243 4.60448 -6.45 0 -1.13687e-13 -0.57483 0.100262 -3.51422 -6.45 2.84217e-14 0 -33.0036 38.8676 -15.9625 5.68434e-14 -32.4 -2 23.8908 -15.9701 16.5881 0 -25.65 2 -40.5854 -35.2817 13.2792 0.5 -1.5 2.65 18.2517 -23.6196 14.3273 0 -3.8 3.7 0.101858 15.6084 -0.0567353 1.13687e-13 -3 2.7 -0.000256038 9.11466 -0.0205195 8.52651e-14 -1.9 1.6 -3.18055e-15 3.18055e-15 -4.77083e-15 -2.84217e-14 -8.3 1.9 3.46956 -14.9893 0.323758 5.68434e-14 -4.5 0 3.06472 0.0011802 -0.00326576 0 -3.4 0 9.71383e-06 0.00115891 -0.00325003 0.25 -2.2 0.4 -3.18055e-15 3.18055e-15 -4.77083e-15 0 -8.3 1 2.72242 -12.5334 0.179069 0 -4.65 0 11.8556 -0.0282916 0.135936 0 -3.3 0 8.47074 -0.00953323 0.111699 0.5 -2.15 -0.8 -3.18055e-15 3.18055e-15 -4.77083e-15 -2.84217e-14 -7.75 -0.2 1.45683 -7.8976 -0.00947031 0 -3.8 -5.68434e-14 0.0122516 -0.0229682 -0.000155256 5.68434e-14 -3.4 5.68434e-14 -0.00185587 -0.00576508 -0.000150607 0.75 -1.75 -1.85 -3.18055e-15 3.18055e-15 -4.77083e-15 -5.68434e-14 -7.15 -1 0.238381 -4.00683 -0.00663013 0 -3 0 0.002907 -4.01155e-05 9.41611e-06 0 -2.35 -5.68434e-14 -6.14129e-06 0.00174256 -1.98724e-06 8 7.10543e-15 -5.68434e-14 8.7552 -13.2223 8.30853 1.13687e-13 -45 -1 -1.94704 -1.53809 -2.03578 -1.13687e-13 -41 -2 -9.05172 15.8389 -26.7474 1.13687e-13 -7.5 12.5 -9.88391e-11 4.41076e-06 5.23392e-11 0 -4.44089e-16 4 1.682 -2.51333 49.8641 -8 -7.10543e-15 0 -15.648 -10.5327 -8.69708 1.13687e-13 -45 -1 0.0236794 5.75396 -1.54411 1.13687e-13 -41 -2 5.6345 1.26941 -18.6637 -1.13687e-13 -7.5 12.5 4.90081e-09 0.0303498 -2.29642e-06 0 1.42109e-14 4 -1.35704 -1.80524 35.4405 
